<svg width="500" height="500" viewBox="0 0 500 500" fill="none" xmlns="http://www.w3.org/2000/svg">
<g clip-path="url(#clip0_926_252)">
<path d="M429.978 225.998C430.326 240.421 428.793 254.966 425.202 269.3C412.047 321.806 371.198 370.53 319.28 389.866C239.271 419.664 162.722 379.117 115.39 315.352C78.2777 265.354 83.0297 189.699 115.004 138.284C118.35 132.904 122.015 127.716 125.993 122.766C181.889 53.2041 296.127 34.7941 366.058 94.3891C405.017 127.59 428.773 176.063 429.978 225.998Z" fill="#D3AEA3"/>
<path d="M283.522 193.332H359.36C372.218 193.332 382.251 204.453 380.924 217.243C378.783 237.886 371.993 268.202 369.126 292.953C366.617 314.613 348.277 330.95 326.472 330.95H257.96L283.522 193.332Z" fill="#D73410"/>
<path d="M274.072 193.332H346.324C359.182 193.332 369.215 204.453 367.888 217.243C365.747 237.886 362.542 256.586 359.675 281.337C357.166 302.997 338.826 319.335 317.021 319.335H248.51L274.072 193.332Z" fill="#D73410"/>
<path d="M309.511 331.762H300.651V443.171H309.511V331.762Z" fill="#011843"/>
<path d="M325.52 334.403H279.326C277.709 334.403 276.398 333.092 276.398 331.475V330.883H328.448V331.475C328.448 333.092 327.137 334.403 325.52 334.403Z" fill="#011843"/>
<path d="M268.757 453.654C268.757 447.293 273.913 442.137 280.274 442.137H333.431C339.792 442.137 344.948 447.293 344.948 453.654V454.106" stroke="#011843" stroke-width="2.6579" stroke-miterlimit="10" stroke-linecap="round" stroke-linejoin="round"/>
<path d="M323.796 453.541V442.023" stroke="#011843" stroke-width="2.6579" stroke-miterlimit="10"/>
<path d="M289.244 453.541V442.023" stroke="#011843" stroke-width="2.6579" stroke-miterlimit="10"/>
<path d="M269.67 459.258C272.665 459.258 275.092 456.831 275.092 453.836C275.092 450.842 272.665 448.414 269.67 448.414C266.676 448.414 264.248 450.842 264.248 453.836C264.248 456.831 266.676 459.258 269.67 459.258Z" fill="#011843"/>
<path d="M269.67 455.586C270.636 455.586 271.42 454.802 271.42 453.836C271.42 452.869 270.636 452.086 269.67 452.086C268.703 452.086 267.92 452.869 267.92 453.836C267.92 454.802 268.703 455.586 269.67 455.586Z" stroke="#DBE2EF" stroke-width="0.8184" stroke-miterlimit="10" stroke-linecap="round" stroke-linejoin="round"/>
<path d="M289.67 459.258C292.665 459.258 295.092 456.831 295.092 453.836C295.092 450.842 292.665 448.414 289.67 448.414C286.676 448.414 284.248 450.842 284.248 453.836C284.248 456.831 286.676 459.258 289.67 459.258Z" fill="#011843"/>
<path d="M289.67 455.586C290.636 455.586 291.42 454.802 291.42 453.836C291.42 452.869 290.636 452.086 289.67 452.086C288.703 452.086 287.92 452.869 287.92 453.836C287.92 454.802 288.703 455.586 289.67 455.586Z" stroke="#DBE2EF" stroke-width="0.8184" stroke-miterlimit="10" stroke-linecap="round" stroke-linejoin="round"/>
<path d="M324.795 459.258C327.79 459.258 330.217 456.831 330.217 453.836C330.217 450.842 327.79 448.414 324.795 448.414C321.801 448.414 319.373 450.842 319.373 453.836C319.373 456.831 321.801 459.258 324.795 459.258Z" fill="#011843"/>
<path d="M324.795 455.586C325.761 455.586 326.545 454.802 326.545 453.836C326.545 452.869 325.761 452.086 324.795 452.086C323.828 452.086 323.045 452.869 323.045 453.836C323.045 454.802 323.828 455.586 324.795 455.586Z" stroke="#DBE2EF" stroke-width="0.8184" stroke-miterlimit="10" stroke-linecap="round" stroke-linejoin="round"/>
<path d="M344.795 459.258C347.79 459.258 350.217 456.831 350.217 453.836C350.217 450.842 347.79 448.414 344.795 448.414C341.801 448.414 339.373 450.842 339.373 453.836C339.373 456.831 341.801 459.258 344.795 459.258Z" fill="#011843"/>
<path d="M344.795 455.586C345.761 455.586 346.545 454.802 346.545 453.836C346.545 452.869 345.761 452.086 344.795 452.086C343.828 452.086 343.045 452.869 343.045 453.836C343.045 454.802 343.828 455.586 344.795 455.586Z" stroke="#DBE2EF" stroke-width="0.8184" stroke-miterlimit="10" stroke-linecap="round" stroke-linejoin="round"/>
<path d="M168.643 280.523L178.875 457.83C178.889 460.471 175.313 460.606 175.161 457.97L155.685 280.542" fill="black"/>
<path d="M155.686 280.488L168.65 280.538L156.388 286.745L155.686 280.488Z" fill="#011843"/>
<path d="M250.474 466.975C378.739 466.975 482.72 465.219 482.72 463.052C482.72 460.885 378.739 459.129 250.474 459.129C122.208 459.129 18.2275 460.885 18.2275 463.052C18.2275 465.219 122.208 466.975 250.474 466.975Z" fill="#A3B7D3"/>
<path d="M154.521 169.142H103.43C97.5125 169.142 93.0275 163.804 94.0475 157.975L98.6215 131.843C99.4195 127.285 103.377 123.961 108.004 123.961H159.095C165.012 123.961 169.497 129.299 168.477 135.128L163.903 161.26C163.105 165.817 159.148 169.142 154.521 169.142Z" fill="#D73410"/>
<path d="M140.359 165.388H150.768C154.76 165.388 158.234 162.7 159.284 158.848C160.198 155.496 160.539 152.191 161.358 149.055" stroke="#DBE2EF" stroke-width="0.6645" stroke-miterlimit="10" stroke-linecap="round" stroke-linejoin="round"/>
<path d="M119.406 166.4L124.409 176.238C125.392 178.17 127.647 178.4 128.885 176.695L136.681 165.957" fill="#D73410"/>
<path d="M116.632 148.265C118.115 148.265 119.317 147.062 119.317 145.58C119.317 144.097 118.115 142.895 116.632 142.895C115.149 142.895 113.947 144.097 113.947 145.58C113.947 147.062 115.149 148.265 116.632 148.265Z" stroke="#DBE2EF" stroke-width="0.6645" stroke-miterlimit="10"/>
<path d="M133.946 145.58C133.946 147.063 132.744 148.265 131.261 148.265C129.778 148.265 128.576 147.063 128.576 145.58C128.576 144.097 129.778 142.895 131.261 142.895C132.744 142.895 133.946 144.098 133.946 145.58Z" stroke="#DBE2EF" stroke-width="0.6645" stroke-miterlimit="10"/>
<path d="M145.892 148.265C147.375 148.265 148.577 147.062 148.577 145.58C148.577 144.097 147.375 142.895 145.892 142.895C144.409 142.895 143.207 144.097 143.207 145.58C143.207 147.062 144.409 148.265 145.892 148.265Z" stroke="#DBE2EF" stroke-width="0.6645" stroke-miterlimit="10"/>
<path d="M162.226 145.06C162.499 143.781 162.772 142.502 163.045 141.223" stroke="#DBE2EF" stroke-width="0.6645" stroke-miterlimit="10" stroke-linecap="round" stroke-linejoin="round"/>
<path d="M253.911 108.043C257.253 94.0525 248.62 80.0024 234.63 76.661C220.64 73.3195 206.59 81.9519 203.248 95.9421C199.907 109.932 208.539 123.982 222.53 127.324C236.52 130.665 250.57 122.033 253.911 108.043Z" fill="#F4F4F4"/>
<path d="M245.093 103.72V100.974C245.093 100.264 244.518 99.689 243.808 99.689H242.659C241.687 99.689 240.86 99.045 240.546 98.125C240.465 97.888 240.377 97.654 240.283 97.424C239.901 96.493 240.212 95.42 240.993 94.784L241.788 94.137C242.333 93.693 242.415 92.892 241.971 92.347L240.222 90.199C239.778 89.654 238.977 89.572 238.432 90.015L237.431 90.83C236.611 91.497 235.481 91.555 234.551 91.052C234.035 90.773 233.498 90.528 232.942 90.322C231.933 89.948 231.23 89.029 231.23 87.952V86.858C231.23 86.222 230.715 85.707 230.079 85.707H227.065C226.429 85.707 225.914 86.222 225.914 86.858V88.008C225.914 89.051 225.235 89.944 224.255 90.302C223.64 90.527 223.048 90.799 222.481 91.113C221.595 91.604 220.51 91.547 219.725 90.908L218.886 90.225C218.199 89.665 217.188 89.769 216.628 90.456L215.298 92.089C214.738 92.776 214.842 93.787 215.529 94.347L216.358 95.022C217.038 95.576 217.241 96.508 216.901 97.317C216.765 97.642 216.641 97.973 216.532 98.311C216.269 99.124 215.534 99.689 214.68 99.689H213.372C212.664 99.689 212.091 100.263 212.091 100.97V103.723C212.091 104.431 212.665 105.004 213.372 105.004H214.889C215.668 105.004 216.351 105.506 216.602 106.244C216.765 106.722 216.956 107.187 217.172 107.638C217.507 108.335 217.377 109.164 216.83 109.711L215.78 110.761C215.271 111.27 215.271 112.095 215.78 112.604L217.695 114.519C218.204 115.028 219.03 115.028 219.539 114.519L220.06 114.002C220.817 113.245 221.976 113.025 222.933 113.503C223.376 113.724 223.833 113.919 224.304 114.088C225.286 114.44 225.914 115.406 225.914 116.45V117.093C225.914 117.745 226.443 118.274 227.096 118.274H230.049C230.702 118.274 231.231 117.745 231.231 117.093V116.232C231.231 115.263 231.866 114.433 232.779 114.11C233.322 113.918 233.848 113.69 234.354 113.429C235.243 112.971 236.335 113.206 237.016 113.939L237.679 114.652C238.181 115.192 239.025 115.222 239.564 114.721L241.503 112.918C242.042 112.416 242.073 111.572 241.572 111.033L240.515 109.896C239.864 109.196 239.735 108.18 240.124 107.307C240.228 107.073 240.325 106.836 240.415 106.595C240.778 105.625 241.736 105.007 242.772 105.007H243.808C244.518 105.005 245.093 104.43 245.093 103.72ZM228.572 108.601C225.028 108.601 222.155 105.728 222.155 102.184C222.155 98.64 225.028 95.767 228.572 95.767C232.116 95.767 234.989 98.64 234.989 102.184C234.989 105.728 232.116 108.601 228.572 108.601Z" fill="#413B3B"/>
<path d="M394.805 241.305C393.528 241.305 392.56 242.457 392.779 243.715L396.234 263.534C396.853 266.042 399.103 267.805 401.686 267.805H410.863C413.491 267.805 415.767 265.983 416.342 263.419L419.04 243.64C419.208 242.405 418.249 241.306 417.002 241.306H394.805V241.305Z" fill="#011843"/>
<path d="M398.692 253.72C398.692 256.666 396.304 259.053 393.359 259.053C390.414 259.053 388.026 256.665 388.026 253.72C388.026 250.774 390.414 248.387 393.359 248.387C396.304 248.387 398.692 250.774 398.692 253.72Z" stroke="#011843" stroke-width="2" stroke-miterlimit="10" stroke-linecap="round" stroke-linejoin="round"/>
<path d="M411.235 241.246C410.902 239.038 411.429 236.788 412.721 235.216C413.881 233.804 415.38 232.678 416.181 230.998C417.1 229.072 417.381 226.874 417.002 224.775C416.588 222.48 415.357 220.169 413.483 218.742C410.951 216.814 407.907 217.188 404.911 217.028C404.518 217.007 404.125 216.98 403.735 216.928C399.107 216.307 397.485 212.928 394.76 208.004C394.276 210.391 393.79 212.813 393.969 215.242C394.148 217.67 395.08 220.148 396.979 221.673C400.161 224.228 404.925 222.132 408.298 224.428C409.196 225.039 410.356 226.547 410.548 227.616C410.897 229.562 408.985 232.304 407.085 232.788C405.169 233.276 403.22 233.09 401.53 234.116C399.84 235.142 399.277 237.368 399.277 239.345C399.277 240.47 399.319 241.245 399.319 241.245" fill="#F4F4F4"/>
<path d="M394.026 249.555L418.109 249.638" stroke="#DBE2EF" stroke-width="0.8184" stroke-miterlimit="10" stroke-linecap="round" stroke-linejoin="round"/>
<path d="M395.442 257.137H416.942" stroke="#DBE2EF" stroke-width="0.8184" stroke-miterlimit="10" stroke-linecap="round" stroke-linejoin="round"/>
<path d="M415.111 260.064C415.504 256.004 415.898 251.943 416.291 247.883" stroke="#DBE2EF" stroke-width="0.8184" stroke-miterlimit="10" stroke-linecap="round" stroke-linejoin="round"/>
<path d="M151.438 86.0493L151.519 85.9903C151.916 85.7013 152.003 85.1443 151.714 84.7483L147.167 78.5073C146.878 78.1103 146.322 78.0233 145.925 78.3123C143.309 80.2183 139.643 79.6423 137.737 77.0263L132.862 70.3353C130.956 67.7193 131.532 64.0533 134.148 62.1473C134.545 61.8583 134.632 61.3023 134.343 60.9053L130.68 55.8773C130.391 55.4803 129.835 55.3933 129.438 55.6823L129.357 55.7413C123.996 59.6473 122.816 67.1593 126.722 72.5213L134.659 83.4163C138.564 88.7753 146.076 89.9553 151.438 86.0493Z" fill="#011843"/>
<path d="M150.359 67.5547C151.74 67.5547 152.859 66.4354 152.859 65.0547C152.859 63.674 151.74 62.5547 150.359 62.5547C148.979 62.5547 147.859 63.674 147.859 65.0547C147.859 66.4354 148.979 67.5547 150.359 67.5547Z" stroke="#1054D7" stroke-miterlimit="10"/>
<path d="M169.359 67.5547C170.74 67.5547 171.859 66.4354 171.859 65.0547C171.859 63.674 170.74 62.5547 169.359 62.5547C167.979 62.5547 166.859 63.674 166.859 65.0547C166.859 66.4354 167.979 67.5547 169.359 67.5547Z" stroke="#1054D7" stroke-miterlimit="10"/>
<path d="M159.359 67.5547C160.74 67.5547 161.859 66.4354 161.859 65.0547C161.859 63.674 160.74 62.5547 159.359 62.5547C157.979 62.5547 156.859 63.674 156.859 65.0547C156.859 66.4354 157.979 67.5547 159.359 67.5547Z" stroke="#011843" stroke-miterlimit="10"/>
<path d="M366.978 153.711L368.436 164.159C368.722 166.211 370.341 166.827 371.648 165.382L379.878 156.284" fill="#011843"/>
<path d="M409.685 158.723H338.678C334.6 158.723 331.588 154.92 332.522 150.951L337.545 129.599C338.217 126.742 340.766 124.723 343.701 124.723H414.709C418.787 124.723 421.798 128.526 420.864 132.495L415.841 153.847C415.168 156.704 412.619 158.723 409.685 158.723Z" fill="#011843"/>
<path d="M401.567 155.35H406.394C409.341 155.35 411.913 153.349 412.636 150.492L414.233 144.184" stroke="#DBE2EF" stroke-width="0.6645" stroke-miterlimit="10" stroke-linecap="round" stroke-linejoin="round"/>
<path d="M415.011 141.062C415.178 140.312 415.345 139.562 415.512 138.812" stroke="#DBE2EF" stroke-width="0.6645" stroke-miterlimit="10" stroke-linecap="round" stroke-linejoin="round"/>
<path d="M348.859 131.555H409.959" stroke="#DBE2EF" stroke-width="0.6645" stroke-miterlimit="10" stroke-linecap="round" stroke-linejoin="round"/>
<path d="M346.359 139.555H386.371" stroke="#DBE2EF" stroke-width="0.6645" stroke-miterlimit="10" stroke-linecap="round" stroke-linejoin="round"/>
<path d="M344.359 146.555H396.402" stroke="#DBE2EF" stroke-width="0.6645" stroke-miterlimit="10" stroke-linecap="round" stroke-linejoin="round"/>
<path d="M300.359 46.0547H229.692C224.721 46.0547 220.692 42.0257 220.692 37.0547C220.692 32.0837 224.721 28.0547 229.692 28.0547H300.359C305.33 28.0547 309.359 32.0837 309.359 37.0547C309.359 42.0257 305.33 46.0547 300.359 46.0547Z" fill="#D73410"/>
<path d="M237.813 33.0531L238.927 35.3101C238.972 35.4001 239.058 35.4631 239.157 35.4771L241.648 35.8391C241.898 35.8751 241.998 36.1831 241.817 36.3601L240.014 38.1171C239.942 38.1871 239.909 38.2881 239.926 38.3871L240.352 40.8681C240.395 41.1171 240.133 41.3081 239.909 41.1901L237.681 40.0181C237.592 39.9711 237.486 39.9711 237.397 40.0181L235.169 41.1901C234.945 41.3081 234.683 41.1181 234.726 40.8681L235.152 38.3871C235.169 38.2881 235.136 38.1871 235.064 38.1171L233.261 36.3601C233.08 36.1831 233.18 35.8761 233.43 35.8391L235.921 35.4771C236.02 35.4631 236.106 35.4001 236.151 35.3101L237.265 33.0531C237.377 32.8261 237.701 32.8261 237.813 33.0531Z" fill="#F4F4F4"/>
<path d="M251.557 33.0531L252.671 35.3101C252.716 35.4001 252.801 35.4631 252.901 35.4771L255.392 35.8391C255.642 35.8751 255.742 36.1831 255.561 36.3601L253.758 38.1171C253.686 38.1871 253.653 38.2881 253.67 38.3871L254.096 40.8681C254.139 41.1171 253.877 41.3081 253.653 41.1901L251.425 40.0181C251.336 39.9711 251.23 39.9711 251.141 40.0181L248.913 41.1901C248.689 41.3081 248.427 41.1181 248.47 40.8681L248.895 38.3871C248.912 38.2881 248.879 38.1871 248.807 38.1171L247.004 36.3601C246.823 36.1831 246.923 35.8761 247.173 35.8391L249.664 35.4771C249.764 35.4631 249.85 35.4001 249.894 35.3101L251.008 33.0531C251.122 32.8261 251.445 32.8261 251.557 33.0531Z" fill="#F4F4F4"/>
<path d="M265.301 33.0531L266.415 35.3101C266.46 35.4001 266.546 35.4631 266.645 35.4771L269.136 35.8391C269.386 35.8751 269.486 36.1831 269.305 36.3601L267.502 38.1171C267.43 38.1871 267.397 38.2881 267.414 38.3871L267.84 40.8681C267.883 41.1171 267.621 41.3081 267.397 41.1901L265.169 40.0181C265.08 39.9711 264.974 39.9711 264.885 40.0181L262.657 41.1901C262.433 41.3081 262.171 41.1181 262.214 40.8681L262.64 38.3871C262.657 38.2881 262.624 38.1871 262.552 38.1171L260.749 36.3601C260.568 36.1831 260.668 35.8761 260.918 35.8391L263.409 35.4771C263.508 35.4631 263.594 35.4001 263.639 35.3101L264.753 33.0531C264.865 32.8261 265.189 32.8261 265.301 33.0531Z" fill="#F4F4F4"/>
<path d="M279.044 33.0531L280.158 35.3101C280.202 35.4001 280.288 35.4631 280.388 35.4771L282.879 35.8391C283.129 35.8751 283.229 36.1831 283.048 36.3601L281.245 38.1171C281.173 38.1871 281.14 38.2881 281.157 38.3871L281.583 40.8681C281.626 41.1171 281.364 41.3081 281.14 41.1901L278.912 40.0181C278.823 39.9711 278.717 39.9711 278.628 40.0181L276.4 41.1901C276.176 41.3081 275.914 41.1181 275.957 40.8681L276.383 38.3871C276.4 38.2881 276.367 38.1871 276.295 38.1171L274.492 36.3601C274.311 36.1831 274.411 35.8761 274.661 35.8391L277.152 35.4771C277.251 35.4631 277.337 35.4001 277.382 35.3101L278.496 33.0531C278.608 32.8261 278.932 32.8261 279.044 33.0531Z" fill="#F4F4F4"/>
<path d="M292.786 33.0531L293.9 35.3101C293.944 35.4001 294.03 35.4631 294.13 35.4771L296.621 35.8391C296.871 35.8751 296.971 36.1831 296.79 36.3601L294.987 38.1171C294.915 38.1871 294.882 38.2881 294.899 38.3871L295.325 40.8681C295.368 41.1171 295.106 41.3081 294.882 41.1901L292.654 40.0181C292.565 39.9711 292.459 39.9711 292.37 40.0181L290.142 41.1901C289.918 41.3081 289.656 41.1181 289.699 40.8681L290.125 38.3871C290.142 38.2881 290.109 38.1871 290.037 38.1171L288.234 36.3601C288.053 36.1831 288.153 35.8761 288.403 35.8391L290.894 35.4771C290.993 35.4631 291.079 35.4001 291.124 35.3101L292.238 33.0531C292.35 32.8261 292.674 32.8261 292.786 33.0531Z" fill="#F4F4F4"/>
<path d="M89.0729 279.152L68.1529 457.707C67.9899 460.342 71.5519 460.719 71.8519 458.099L102.014 280.032" fill="black"/>
<path d="M88.9069 280.492L102.204 280.542L88.1689 286.582L88.9069 280.492Z" fill="#011843"/>
<path d="M441.859 279.152L462.779 459.39C462.942 462.025 459.38 462.402 459.08 459.781L428.918 280.031" fill="black"/>
<path d="M428.927 280.492H442.106L430.071 286.952L428.927 280.492Z" fill="#011843"/>
<path d="M361.82 280.492L352.397 457.419C352.383 460.06 355.959 460.195 356.111 457.559L374.999 280.493" fill="black"/>
<path d="M361.819 280.492H374.997L361.523 286.952L361.819 280.492Z" fill="#011843"/>
<path d="M455.39 267.895H67.374V280.537H455.39V267.895Z" fill="#5C9EFF"/>
<path d="M303.442 267.895H56.9717V280.537H303.442V267.895Z" fill="#1054D7"/>
<path d="M222.359 186.388C222.359 188.229 220.867 189.721 219.026 189.721C217.185 189.721 215.693 188.229 215.693 186.388C215.693 184.547 217.185 183.055 219.026 183.055C220.867 183.055 222.359 184.547 222.359 186.388Z" stroke="#DBE2EF" stroke-width="0.8184" stroke-miterlimit="10"/>
<path d="M314.026 112.388C314.026 114.229 312.534 115.721 310.693 115.721C308.852 115.721 307.36 114.229 307.36 112.388C307.36 110.547 308.852 109.055 310.693 109.055C312.533 109.055 314.026 110.547 314.026 112.388Z" stroke="#DBE2EF" stroke-width="0.8184" stroke-miterlimit="10"/>
<path d="M395.359 182.056C395.359 183.897 393.867 185.389 392.026 185.389C390.185 185.389 388.693 183.897 388.693 182.056C388.693 180.215 390.185 178.723 392.026 178.723C393.867 178.723 395.359 180.215 395.359 182.056Z" stroke="#DBE2EF" stroke-width="0.8184" stroke-miterlimit="10"/>
<path d="M155.359 196.389C157.2 196.389 158.692 194.896 158.692 193.056C158.692 191.215 157.2 189.723 155.359 189.723C153.519 189.723 152.026 191.215 152.026 193.056C152.026 194.896 153.519 196.389 155.359 196.389Z" stroke="#DBE2EF" stroke-width="0.8184" stroke-miterlimit="10"/>
<path d="M185.752 178.112C185.752 179.371 184.731 180.392 183.472 180.392C182.213 180.392 181.192 179.371 181.192 178.112C181.192 176.853 182.213 175.832 183.472 175.832C184.731 175.832 185.752 176.853 185.752 178.112Z" stroke="#DBE2EF" stroke-width="0.8184" stroke-miterlimit="10"/>
<path d="M240.693 157.725C240.693 158.984 239.672 160.005 238.413 160.005C237.154 160.005 236.133 158.984 236.133 157.725C236.133 156.466 237.154 155.445 238.413 155.445C239.672 155.445 240.693 156.466 240.693 157.725Z" stroke="#DBE2EF" stroke-width="0.8184" stroke-miterlimit="10"/>
<path d="M182.027 103.389C182.027 104.648 181.006 105.669 179.747 105.669C178.488 105.669 177.467 104.648 177.467 103.389C177.467 102.13 178.488 101.109 179.747 101.109C181.006 101.11 182.027 102.13 182.027 103.389Z" stroke="#DBE2EF" stroke-width="0.8184" stroke-miterlimit="10"/>
<path d="M365.36 180.389C365.36 181.648 364.339 182.669 363.08 182.669C361.821 182.669 360.8 181.648 360.8 180.389C360.8 179.13 361.821 178.109 363.08 178.109C364.339 178.109 365.36 179.13 365.36 180.389Z" stroke="#DBE2EF" stroke-width="0.8184" stroke-miterlimit="10"/>
<path d="M104.027 213.725C104.027 214.984 103.006 216.005 101.747 216.005C100.488 216.005 99.4668 214.984 99.4668 213.725C99.4668 212.466 100.488 211.445 101.747 211.445C103.006 211.445 104.027 212.466 104.027 213.725Z" stroke="#DBE2EF" stroke-width="0.8184" stroke-miterlimit="10"/>
<path d="M194.491 142.593V135.523" stroke="#DBE2EF" stroke-width="0.8184" stroke-miterlimit="10" stroke-linecap="round" stroke-linejoin="round"/>
<path d="M190.956 139.059H198.027" stroke="#DBE2EF" stroke-width="0.8184" stroke-miterlimit="10" stroke-linecap="round" stroke-linejoin="round"/>
<path d="M273.158 83.2585V76.1875" stroke="#DBE2EF" stroke-width="0.8184" stroke-miterlimit="10" stroke-linecap="round" stroke-linejoin="round"/>
<path d="M269.622 79.7227H276.693" stroke="#DBE2EF" stroke-width="0.8184" stroke-miterlimit="10" stroke-linecap="round" stroke-linejoin="round"/>
<path d="M337.158 177.926V170.855" stroke="#DBE2EF" stroke-width="0.8184" stroke-miterlimit="10" stroke-linecap="round" stroke-linejoin="round"/>
<path d="M333.622 174.391H340.693" stroke="#DBE2EF" stroke-width="0.8184" stroke-miterlimit="10" stroke-linecap="round" stroke-linejoin="round"/>
<path d="M109.824 246.593V239.523" stroke="#DBE2EF" stroke-width="0.8184" stroke-miterlimit="10" stroke-linecap="round" stroke-linejoin="round"/>
<path d="M106.289 243.059H113.36" stroke="#DBE2EF" stroke-width="0.8184" stroke-miterlimit="10" stroke-linecap="round" stroke-linejoin="round"/>
<path d="M141.158 301.258V294.188" stroke="#DBE2EF" stroke-width="0.8184" stroke-miterlimit="10" stroke-linecap="round" stroke-linejoin="round"/>
<path d="M137.622 297.723H144.693" stroke="#DBE2EF" stroke-width="0.8184" stroke-miterlimit="10" stroke-linecap="round" stroke-linejoin="round"/>
<path d="M230.89 424.887C230.305 421.149 228.362 416.198 227.529 412.507C227.994 412.217 245.64 405.613 250.024 404.234L254.805 424.381" fill="#FF6258"/>
<path d="M233.154 307.788H226.025C226.025 307.788 235.86 328.055 243.86 351.555C256.089 387.478 258.776 406.708 258.776 406.708L209.669 417.972L177.653 302.188C177.653 302.188 172.052 288.949 180.199 280.293H250.974L233.154 307.788Z" fill="#011843"/>
<path d="M255.175 424.066L261.428 459.177H244.472L241.886 446.596L233.397 459.177H202.784L202.725 457.143C202.633 452.938 205.397 449.17 209.463 448.09C217.459 445.967 227.948 440.541 230.77 424.839" fill="#011843"/>
<path d="M230.299 436.607C229.481 435.677 228.662 434.747 227.844 433.818C229.755 433.457 231.19 432.621 233.102 432.26C231.69 431.502 230.028 430.552 228.616 429.793C230.396 429.111 233.857 427.531 233.857 427.531" stroke="white" stroke-miterlimit="10" stroke-linecap="round" stroke-linejoin="round"/>
<path d="M170.042 418.863C170.042 418.863 178.119 406.089 180.41 403.078C180.931 403.248 197.332 412.522 201.206 414.994L188.844 431.606" fill="#FF6258"/>
<path d="M192.093 428.044L178.095 460.845L163.908 451.558L168.635 439.616L154.642 445.493L129.029 428.726L130.094 426.992C132.32 423.423 136.697 421.785 140.69 423.108C148.543 425.711 160.29 426.916 171.252 415.324" fill="#011843"/>
<path d="M165.678 425.229C164.888 423.82 164.179 422.365 163.557 420.874C165.67 421.193 167.742 421.596 169.856 421.915C169.118 420.199 168.252 418.275 167.514 416.559C169.404 417.333 171.312 417.926 173.202 418.7" stroke="white" stroke-miterlimit="10" stroke-linecap="round" stroke-linejoin="round"/>
<path d="M292.616 312.225H308.932C320.526 312.225 332.397 306.609 333.359 295.055C334.026 287.055 329.924 280.293 329.924 280.293H248.937C248.937 280.293 220.093 306.344 197.359 336.555C168.435 374.991 159.102 393.013 159.102 393.013L207.075 421.862L279.159 319.219C282.239 314.835 287.26 312.225 292.616 312.225Z" fill="#005ED0"/>
<path d="M202.861 418.297C227.79 384.891 251.806 348.607 276.338 314.362C279.446 310.024 284.738 307.792 290.072 307.647L321.497 306.793" stroke="#011843" stroke-width="0.886" stroke-miterlimit="10" stroke-linecap="round" stroke-linejoin="round"/>
<path d="M169.313 382.152L215.017 409.866" stroke="#011843" stroke-width="0.886" stroke-miterlimit="10" stroke-linecap="round" stroke-linejoin="round"/>
<path d="M244.073 295.101C246.485 292.515 248.897 289.93 251.309 287.344" stroke="#011843" stroke-width="0.886" stroke-miterlimit="10" stroke-linecap="round" stroke-linejoin="round"/>
<path d="M250.385 292.07C248.871 294.939 247.632 297.952 246.688 301.055" stroke="#011843" stroke-width="0.886" stroke-miterlimit="10" stroke-linecap="round" stroke-linejoin="round"/>
<path d="M167.782 390.5C172.134 384.346 176.485 378.193 180.837 372.039" stroke="#011843" stroke-width="0.886" stroke-miterlimit="10" stroke-linecap="round" stroke-linejoin="round"/>
<path d="M334.93 206.145C334.646 198.806 333.323 193.404 327.481 187.719C325.277 185.574 322.574 183.167 319.675 181.713C315.454 179.597 309.964 178.761 305.94 176.851L299.984 169.558L288.63 170.61L280.739 169.031C275.603 178.945 258.311 179.416 249.778 187.719C243.936 193.405 242.612 198.807 242.329 206.145C241.588 225.311 244.192 267.894 244.192 267.894H283.105H294.156H330.252C330.249 267.893 335.671 225.311 334.93 206.145Z" fill="#F4F4F4"/>
<g opacity="0.44">
<mask id="mask0_926_252" style="mask-type:luminance" maskUnits="userSpaceOnUse" x="242" y="168" width="115" height="100">
<path d="M356.135 248.276C353.161 236.559 349.437 224.714 345.139 214.281C341.88 206.371 338.165 198.526 332.69 191.952C327.407 185.609 320.29 180.501 312.216 178.887C309.991 178.228 307.806 177.574 305.939 176.687L299.983 169.394L288.629 170.446L280.738 168.867C275.602 178.781 258.31 179.251 249.777 187.555C243.934 193.241 242.611 198.643 242.328 205.981C241.587 225.147 244.191 267.73 244.191 267.73H283.104H294.155H330.251C330.251 267.73 330.358 266.892 330.539 265.4C334.195 265.668 337.768 265.928 341.098 266.17C350.896 266.885 358.552 257.8 356.135 248.276Z" fill="white"/>
</mask>
<g mask="url(#mask0_926_252)">
<path d="M332.843 279.887V169.031" stroke="#B0BFD6" stroke-width="0.9724" stroke-miterlimit="10" stroke-linecap="round" stroke-linejoin="round"/>
<path d="M314.431 277.293V169.031" stroke="#B0BFD6" stroke-width="0.9724" stroke-miterlimit="10" stroke-linecap="round" stroke-linejoin="round"/>
<path d="M296.021 280.211V169.031" stroke="#B0BFD6" stroke-width="0.9724" stroke-miterlimit="10" stroke-linecap="round" stroke-linejoin="round"/>
<path d="M277.544 273.728L277.674 169.031" stroke="#B0BFD6" stroke-width="0.9724" stroke-miterlimit="10" stroke-linecap="round" stroke-linejoin="round"/>
<path d="M259.198 281.213V169.031" stroke="#B0BFD6" stroke-width="0.9724" stroke-miterlimit="10" stroke-linecap="round" stroke-linejoin="round"/>
<path d="M229.118 193.664H351.319" stroke="#B0BFD6" stroke-width="0.9724" stroke-miterlimit="10" stroke-linecap="round" stroke-linejoin="round"/>
<path d="M229.118 210.195H351.319" stroke="#B0BFD6" stroke-width="0.9724" stroke-miterlimit="10" stroke-linecap="round" stroke-linejoin="round"/>
<path d="M229.118 227.375H351.319" stroke="#B0BFD6" stroke-width="0.9724" stroke-miterlimit="10" stroke-linecap="round" stroke-linejoin="round"/>
<path d="M229.118 244.555L351.319 245.528" stroke="#B0BFD6" stroke-width="0.9724" stroke-miterlimit="10" stroke-linecap="round" stroke-linejoin="round"/>
<path d="M229.118 261.734H351.319" stroke="#B0BFD6" stroke-width="0.9724" stroke-miterlimit="10" stroke-linecap="round" stroke-linejoin="round"/>
</g>
</g>
<path d="M254.61 230.559C255.394 240.338 256.842 252.068 258.381 261.757" stroke="#011843" stroke-width="0.886" stroke-miterlimit="10" stroke-linecap="round" stroke-linejoin="round"/>
<path d="M284.713 179.852L288.875 187.056" stroke="#011843" stroke-width="0.886" stroke-miterlimit="10" stroke-linecap="round" stroke-linejoin="round"/>
<path d="M284.667 179.889L279.481 186.007L274.781 176.445" stroke="#011843" stroke-width="0.886" stroke-miterlimit="10" stroke-linecap="round" stroke-linejoin="round"/>
<path d="M288.93 186.954L304.684 177.418" stroke="#011843" stroke-width="0.886" stroke-miterlimit="10" stroke-linecap="round" stroke-linejoin="round"/>
<path d="M284.741 180.34C284.859 189.702 278.122 198.839 275.968 207.951C274.38 214.669 275.148 221.693 275.979 228.546C276.618 233.817 277.29 239.083 277.994 244.346" stroke="#011843" stroke-width="0.886" stroke-miterlimit="10" stroke-linecap="round" stroke-linejoin="round"/>
<path d="M259.658 181.816C258.884 184.687 258.43 187.645 258.307 190.616" stroke="#011843" stroke-width="0.886" stroke-miterlimit="10" stroke-linecap="round" stroke-linejoin="round"/>
<path d="M238.891 216.923C239.325 209.891 239.746 204.93 242.36 198.387C244.974 191.844 252.494 183.71 258.693 181.887C253.466 194.893 250.494 239.116 256.717 267.227H241.523" fill="#F4F4F4"/>
<path d="M271.904 255.13C273.687 256.71 275.328 257.723 277.252 258.898C279.018 259.976 283.735 260.952 285.803 261.005H288.84L286.855 246.743C286.982 246.743 286.735 246.783 286.855 246.743L285.281 246.705C279.653 245.684 273.743 244.106 268.187 242.742C261.993 245.422 257.319 248.671 252.423 252.985C251.356 253.925 251.543 255.631 252.78 256.331C252.85 256.371 252.923 256.41 252.999 256.449C252.999 256.449 252.73 257.029 253.153 257.742C253.73 258.714 254.796 258.686 255.706 258.775C256.532 258.856 258.471 257.681 258.471 257.681C258.471 257.681 259.328 258.838 259.924 258.781C262.441 258.536 264.811 257.863 267.344 256.952C268.651 256.485 271.904 255.13 271.904 255.13Z" fill="#FF6258"/>
<path d="M252.641 256.272C256.658 253.553 260.595 250.715 264.443 247.762" stroke="#011843" stroke-width="0.886" stroke-miterlimit="10" stroke-linecap="round" stroke-linejoin="round"/>
<path d="M259.84 258.503C258.928 258.275 258.59 257.776 258.506 257.243C258.385 256.472 258.807 255.717 259.456 255.285C263.093 252.866 266.634 250.284 269.942 247.434" stroke="#011843" stroke-width="0.886" stroke-miterlimit="10" stroke-linecap="round" stroke-linejoin="round"/>
<path d="M284.105 257.181C281.457 256.918 278.894 255.886 276.787 254.263C275.858 253.548 274.592 253.437 273.552 253.977C271.033 255.286 268.509 256.463 265.903 257.624C265.02 258.017 263.92 257.534 263.756 256.581C263.741 256.495 263.734 256.411 263.735 256.33C263.743 255.732 275.119 247.395 275.119 247.395" stroke="#011843" stroke-width="0.886" stroke-miterlimit="10" stroke-linecap="round" stroke-linejoin="round"/>
<path d="M311.335 178.879C319.774 180.284 327.215 185.543 332.69 192.116C338.165 198.69 341.88 206.534 345.139 214.445C349.437 224.878 353.161 236.723 356.135 248.44C358.552 257.963 350.6 267.298 340.785 267.733C320.214 268.644 289.91 268.037 289.91 267.895L285.861 233.889L302.361 234.889L315.178 236.535C315.178 236.535 304.481 209.064 305.697 192.047C305.909 189.06 311.335 178.879 311.335 178.879Z" fill="#F4F4F4"/>
<path d="M315.623 236.555C315.623 236.555 304.367 209.605 306.304 192.654C307.277 184.145 311.571 180.012 311.571 180.012" stroke="#011843" stroke-width="0.886" stroke-miterlimit="10" stroke-linecap="round" stroke-linejoin="round"/>
<path d="M324.699 236.739L285.86 233.891L289.576 267.83" stroke="#011843" stroke-width="0.886" stroke-miterlimit="10" stroke-linecap="round" stroke-linejoin="round"/>
<path d="M301.86 235.055L303.442 267.894" stroke="#011843" stroke-width="0.886" stroke-miterlimit="10" stroke-linecap="round" stroke-linejoin="round"/>
<path d="M306.557 202.037C305.893 194.539 309.014 186.802 314.693 181.863" stroke="#011843" stroke-width="0.886" stroke-miterlimit="10" stroke-linecap="round" stroke-linejoin="round"/>
<path d="M315.356 236.049C317.703 234.57 320.05 233.092 322.396 231.613" stroke="#011843" stroke-width="0.886" stroke-miterlimit="10" stroke-linecap="round" stroke-linejoin="round"/>
<path d="M343.871 265.092C348.174 263.726 351.765 260.282 353.31 256.039" stroke="#011843" stroke-width="0.886" stroke-miterlimit="10" stroke-linecap="round" stroke-linejoin="round"/>
<path d="M300.468 170.408L279.196 171.948L279.283 149.258H300.099L300.468 170.408Z" fill="#F74343"/>
<path d="M300.468 170.408L284.666 179.889L279.196 171.949C279.196 171.949 283.891 162.062 289.683 162.062C295.474 162.062 300.468 170.408 300.468 170.408Z" fill="#F74343"/>
<path d="M298.878 154.277L279.202 170.269V162.835" fill="#011843"/>
<path d="M283.795 122.559C281.592 129.338 275.459 134.418 269.087 137.612C270.343 130.419 275.125 123.207 283.795 122.559Z" fill="#011843"/>
<path d="M301.724 143.102C301.623 148.478 300.632 154.202 296.436 157.944C294.377 159.78 291.866 161.052 289.261 161.961C285.379 163.316 280.325 164.479 276.281 163.363C271.615 162.074 269.498 157.641 268.695 153.202C268.113 149.988 268.088 146.678 268.257 143.425C268.833 132.341 274.554 123.004 284.221 123.004C297.672 123.005 301.932 132.004 301.724 143.102Z" fill="#FF6258"/>
<path d="M306.564 146.038C306.375 149.427 303.744 152.035 300.686 151.865C297.629 151.694 295.304 148.809 295.493 145.421C295.682 142.032 298.313 139.424 301.37 139.594C304.427 139.764 306.753 142.649 306.564 146.038Z" fill="#FF6258"/>
<path d="M271.741 144.763C271.741 146.24 270.544 147.437 269.067 147.437C268.808 147.437 268.558 147.4 268.321 147.332C268.278 147.32 268.168 147.276 268.168 147.276C268.168 147.276 268.105 145.852 268.174 144.456C268.234 143.222 268.346 142.191 268.346 142.191C268.346 142.191 268.495 142.15 268.559 142.138C268.724 142.106 268.894 142.09 269.068 142.09C270.544 142.088 271.741 143.286 271.741 144.763Z" fill="#E52929"/>
<path d="M292.08 144.764C292.08 146.241 290.883 147.438 289.406 147.438C287.929 147.438 286.732 146.241 286.732 144.764C286.732 143.287 287.929 142.09 289.406 142.09C290.883 142.089 292.08 143.287 292.08 144.764Z" fill="#E52929"/>
<path d="M279.845 139.535C278.386 141.642 276.538 144.074 276.741 145.331C276.944 146.589 278.247 147.561 279.511 147.397" stroke="#011843" stroke-width="0.9724" stroke-miterlimit="10" stroke-linecap="round" stroke-linejoin="round"/>
<path d="M275.469 141.966C275.469 142.414 275.106 142.776 274.659 142.776C274.211 142.776 273.849 142.413 273.849 141.966C273.849 141.518 274.212 141.156 274.659 141.156C275.106 141.156 275.469 141.518 275.469 141.966Z" fill="#011843"/>
<path d="M285.03 141.966C285.03 142.414 284.667 142.776 284.22 142.776C283.772 142.776 283.41 142.413 283.41 141.966C283.41 141.518 283.773 141.156 284.22 141.156C284.667 141.156 285.03 141.518 285.03 141.966Z" fill="#011843"/>
<path d="M275.399 151.262C276.976 152.692 279.39 153.119 281.362 152.317" stroke="#011843" stroke-width="0.9724" stroke-miterlimit="10" stroke-linecap="round" stroke-linejoin="round"/>
<path d="M313.308 162.615C308.876 165.174 303.208 163.655 300.649 159.223C298.09 154.791 304.041 148.331 304.041 146.564C304.041 144.275 314.141 145.524 316.7 149.956C319.259 154.388 317.74 160.056 313.308 162.615Z" fill="#011843"/>
<path d="M307.514 147.793C307.263 142.735 306.44 137.617 304.196 133.078C301.952 128.539 298.143 124.608 293.325 123.05C289.813 121.914 285.984 122.088 282.387 122.914C285.855 125.394 289.004 128.322 291.874 131.475C296.903 136.996 300.841 144.439 307.514 147.793Z" fill="#011843"/>
<path d="M301.805 140.143C292.668 139.708 282.627 132.324 279.743 123.642C285.699 121.18 291.726 122.607 296.03 126.566C299.556 129.811 301.562 132.971 301.805 140.143Z" fill="#011843"/>
<path d="M281.479 126.919C278.713 130.48 274.835 134.173 271.121 136.731C270.064 137.459 268.569 138.124 267.6 137.282C267.007 136.767 266.906 135.889 266.946 135.105C267.033 133.389 268.156 131.163 268.933 129.63C269.917 127.687 271.284 125.896 273.096 124.687C274.242 123.923 275.541 123.408 276.874 123.059C278.99 122.504 281.318 122.377 283.3 123.303" fill="#011843"/>
<path d="M300.859 158.052C301.609 162.052 304.82 165.324 308.109 165.678C311.43 166.035 314.781 164.092 316.47 161.211C318.159 158.329 318.282 154.68 317.181 151.527" stroke="#011843" stroke-width="0.886" stroke-miterlimit="10" stroke-linecap="round" stroke-linejoin="round"/>
<path d="M280.676 126.387C280.146 134.77 289.83 139.018 296.936 137.115" stroke="#011843" stroke-width="0.886" stroke-miterlimit="10" stroke-linecap="round" stroke-linejoin="round"/>
<path d="M268.055 136.882C267.025 136.016 266.709 134.551 266.761 133.206C267.003 126.94 274.831 119.576 281.026 124.268" stroke="#011843" stroke-width="0.886" stroke-miterlimit="10" stroke-linecap="round" stroke-linejoin="round"/>
<path d="M285.841 153.635H289.569C294.016 152.836 300.253 150.105 303.161 146.648" stroke="#011843" stroke-width="0.886" stroke-miterlimit="10" stroke-linecap="round" stroke-linejoin="round"/>
<path d="M288.84 154.771H286.085C285.416 154.771 284.87 154.224 284.87 153.556C284.87 152.887 285.417 152.34 286.085 152.34H288.84C289.508 152.34 290.055 152.887 290.055 153.556C290.055 154.224 289.508 154.771 288.84 154.771Z" fill="#F4F4F4"/>
<path d="M304.358 144.276C304.358 146.693 303.398 149.225 301.654 150.11C301.654 150.11 300.168 150.11 299.496 150.11C296.811 150.11 294.634 147.498 294.634 144.276C294.634 141.054 296.811 138.441 299.496 138.441H301.41C303.303 139.24 304.358 141.733 304.358 144.276Z" fill="#9AAECC"/>
<path d="M297.797 142.102C298.38 137.578 297.163 132.846 294.468 129.166C292.264 126.154 288.918 123.605 285.367 122.354C285.248 122.312 285.011 122.233 285.011 122.233L285.009 121.727L288.596 121.788C293.064 121.788 298.325 127.877 299.71 132.125C301.095 136.373 301.306 140.897 301.671 145.35" fill="#9AAECC"/>
<path d="M306.141 144.276C306.141 147.498 303.964 150.11 301.279 150.11C298.594 150.11 296.417 147.498 296.417 144.276C296.417 141.054 298.594 138.441 301.279 138.441C303.964 138.442 306.141 141.054 306.141 144.276Z" fill="#F4F4F4"/>
<path d="M299.175 142.102C299.758 137.578 298.541 132.846 295.846 129.166C293.152 125.485 289.498 122.539 285.009 121.727H289.974C290.774 121.745 293.802 122.828 295.59 124.348C298.128 126.506 300.275 129.632 301.088 132.124C302.473 136.372 302.684 140.896 303.049 145.349" fill="#F4F4F4"/>
<path d="M303.182 144.317C303.182 145.525 302.42 146.505 301.48 146.505C300.54 146.505 299.778 145.525 299.778 144.317C299.778 143.109 300.54 142.129 301.48 142.129C302.42 142.129 303.182 143.108 303.182 144.317Z" stroke="#011843" stroke-width="0.886" stroke-miterlimit="10" stroke-linecap="round" stroke-linejoin="round"/>
<path d="M236.712 267.891H289.151L288.501 262.301H236.712V267.891Z" fill="#213E66"/>
<path d="M246.436 267.892L217.767 212.365C216.462 209.838 213.856 208.25 211.012 208.25H138.432C135.254 208.25 133.183 211.588 134.595 214.435L158.559 262.778C160.386 265.942 163.762 267.891 167.416 267.891H246.436V267.892Z" fill="#213E66"/>
<path d="M240.278 267.892L211.609 212.365C210.304 209.838 207.698 208.25 204.854 208.25H132.274C129.096 208.25 127.025 211.588 128.436 214.435L152.4 262.778C154.227 265.942 157.603 267.891 161.257 267.891H240.278V267.892Z" fill="#011843"/>
<path d="M211.878 221.798L208.859 215.95C207.554 213.423 204.948 211.836 202.104 211.836H181.359" stroke="#DBE2EF" stroke-width="0.6645" stroke-miterlimit="10" stroke-linecap="round" stroke-linejoin="round"/>
<path d="M180.457 242.285C183.045 243.97 186.194 243.721 187.492 241.729C188.79 239.737 187.743 236.755 185.156 235.07C182.568 233.385 179.419 233.634 178.121 235.626C176.824 237.619 177.87 240.6 180.457 242.285Z" stroke="#DBE2EF" stroke-width="0.8184" stroke-miterlimit="10"/>
<path d="M361.369 98.0527H322.153C319.659 98.0527 317.776 95.7907 318.228 93.3377L319.763 85.0037L321.424 75.9867C321.773 74.0927 323.424 72.7188 325.349 72.7188H364.565C367.059 72.7188 368.942 74.9807 368.49 77.4337L367.058 85.2077L365.294 94.7838C364.946 96.6778 363.295 98.0527 361.369 98.0527Z" fill="#1054D7"/>
<path d="M322.026 72.7188L341.359 87.0518L369.359 72.7188" stroke="#DBE2EF" stroke-width="0.6645" stroke-miterlimit="10"/>
<path d="M323.359 95.5547H344.882" stroke="#DBE2EF" stroke-width="0.6645" stroke-miterlimit="10" stroke-linecap="round" stroke-linejoin="round"/>
<path d="M347.859 95.5547C348.026 95.5547 348.192 95.5547 348.359 95.5547H351.4" stroke="#DBE2EF" stroke-width="0.6645" stroke-miterlimit="10" stroke-linecap="round" stroke-linejoin="round"/>
</g>
<defs>
<clipPath id="clip0_926_252">
<rect width="500" height="500" fill="white"/>
</clipPath>
</defs>
</svg>
